<svg xmlns="http://www.w3.org/2000/svg" viewBox="0 0 24 18">
  <rect width="24" height="18" rx="2" fill="#fff"/>
  <path d="M0 0h24v2H0zm0 4h24v2H0zm0 4h24v2H0zm0 4h24v2H0zm0 4h24v2H0z" fill="#b22234"/>
  <rect width="10.5" height="9.8" rx="1.2" fill="#3c3b6e"/>
  <g fill="#fff">
    <circle cx="2" cy="2" r=".35"/><circle cx="4" cy="2" r=".35"/><circle cx="6" cy="2" r=".35"/><circle cx="8" cy="2" r=".35"/>
    <circle cx="3" cy="4" r=".35"/><circle cx="5" cy="4" r=".35"/><circle cx="7" cy="4" r=".35"/><circle cx="9" cy="4" r=".35"/>
    <circle cx="2" cy="6" r=".35"/><circle cx="4" cy="6" r=".35"/><circle cx="6" cy="6" r=".35"/><circle cx="8" cy="6" r=".35"/>
  </g>
</svg>
